<?xml version="1.0" encoding="UTF-8" standalone="no"?>
<!-- Created with Inkscape (http://www.inkscape.org/) -->

<svg
   width="600"
   height="150"
   viewBox="0 0 158.75 39.6875"
   version="1.1"
   id="svg1"
   xml:space="preserve"
   inkscape:version="1.4.3 (0d15f75, 2025-12-25)"
   sodipodi:docname="veleri_full copy.svg"
   xmlns:inkscape="http://www.inkscape.org/namespaces/inkscape"
   xmlns:sodipodi="http://sodipodi.sourceforge.net/DTD/sodipodi-0.dtd"
   xmlns="http://www.w3.org/2000/svg"
   xmlns:svg="http://www.w3.org/2000/svg"><sodipodi:namedview
     id="namedview1"
     pagecolor="#ffffff"
     bordercolor="#111111"
     borderopacity="1"
     inkscape:showpageshadow="0"
     inkscape:pageopacity="0"
     inkscape:pagecheckerboard="1"
     inkscape:deskcolor="#d1d1d1"
     inkscape:document-units="mm"
     inkscape:zoom="1"
     inkscape:cx="209"
     inkscape:cy="255"
     inkscape:window-width="1920"
     inkscape:window-height="1021"
     inkscape:window-x="0"
     inkscape:window-y="31"
     inkscape:window-maximized="0"
     inkscape:current-layer="layer1" /><defs
     id="defs1" /><g
     inkscape:label="Layer 1"
     inkscape:groupmode="layer"
     id="layer1"><path
       style="fill:#1b2d59;stroke:none;stroke-width:0.0705064"
       d="m 0.329454,1.6809935 c 0.14292274,0.3207151 0.47436136,0.6209637 0.6939426,0.8954276 l 1.4438821,1.8095175 c 1.5560347,1.9451423 3.108037,3.8934935 4.6636854,5.8389464 5.0190149,6.276612 10.0500279,12.54432 15.0431709,18.841341 1.863821,2.35049 3.741157,4.690454 5.615151,7.032853 l 1.578223,1.977412 c 0.138956,0.17372 0.279899,0.346072 0.415629,0.522329 0.07559,0.09818 0.150141,0.224648 0.26339,0.27982 l 5.813306,-7.816352 1.525937,-2.05203 0.376876,-0.503677 0.136091,-0.223859 L 37.765869,28.077519 37.362937,27.57384 35.85187,25.689706 30.016668,18.41434 20.286349,6.2887255 17.622446,2.9681731 16.89115,2.0540881 16.574591,1.6922529 16.148705,1.6809926 H 15.178631 11.83944 0.329454 M 105.54245,1.7183183 V 34.345544 h 3.61902 V 1.7183119 h -3.61902 m 49.28595,3.8508004 c -0.43128,0.056795 -0.83321,0.1765759 -1.19392,0.4293187 -0.27151,0.1902623 -0.4897,0.4244796 -0.6715,0.7007076 -0.1487,0.2259379 -0.25693,0.4832978 -0.31935,0.7461923 -0.39176,1.6502467 1.02479,3.2260671 2.70709,3.0167361 0.35559,-0.04425 0.70784,-0.170716 1.00739,-0.367813 0.74509,-0.4903313 1.19773,-1.3401261 1.13625,-2.238517 -0.0894,-1.3059811 -1.32376,-2.4634065 -2.66596,-2.2866247 M 97.352997,28.562554 h -0.01868 c -0.629928,0.721609 -1.299784,1.36098 -2.126659,1.857102 -2.262054,1.357219 -5.094745,1.424166 -7.40593,0.151914 -1.352226,-0.744355 -2.506185,-2.015607 -3.015689,-3.482745 -0.114179,-0.328829 -0.201333,-0.663634 -0.256558,-1.00736 -0.01436,-0.08887 -0.07439,-0.285665 -0.02754,-0.367164 0.03922,-0.06805 0.175314,-0.04325 0.240325,-0.04325 h 0.708886 2.92881 12.200228 c 0.005,-0.558777 0.0611,-1.11733 0.0365,-1.678931 -0.0662,-1.511378 -0.35257,-3.002827 -0.939944,-4.402529 -0.638934,-1.52268 -1.682451,-2.900388 -3.014125,-3.882355 -3.457104,-2.54922 -8.634652,-2.407975 -11.976413,0.278325 -3.795958,3.05145 -4.801368,8.952999 -2.653572,13.248556 0.75888,1.517766 1.847827,2.838304 3.250535,3.805105 3.353527,2.31136 7.921566,2.407889 11.416738,0.355112 0.831496,-0.488346 1.612081,-1.0713 2.29456,-1.75375 0.164749,-0.164766 0.326882,-0.329733 0.481926,-0.50368 0.04407,-0.04949 0.140089,-0.131862 0.13297,-0.205202 -0.0067,-0.07861 -0.115533,-0.153514 -0.167192,-0.205204 -0.146421,-0.146398 -0.282696,-0.30135 -0.42906,-0.447715 -0.562826,-0.562836 -1.097341,-1.153332 -1.660282,-1.716238 m 33.112229,0 c -0.38735,0.53873 -0.90792,1.000378 -1.43641,1.39675 -2.5437,1.907934 -6.14214,2.079417 -8.74907,0.186068 -0.50522,-0.366916 -0.9609,-0.796502 -1.3506,-1.28434 -0.69308,-0.867617 -1.29762,-2.051243 -1.29838,-3.189972 h 12.12561 2.9661 0.72753 c 0.0648,0 0.21511,0.02757 0.26067,-0.0299 0.0444,-0.05614 0.0337,-0.234147 0.0373,-0.305876 0.0121,-0.273682 0.0194,-0.546497 0.0194,-0.82081 0,-1.147615 -0.13764,-2.302415 -0.43121,-3.413827 -0.29187,-1.104817 -0.75173,-2.159592 -1.37977,-3.11535 -0.37558,-0.571574 -0.82229,-1.11756 -1.32305,-1.583986 -2.3221,-2.163084 -5.54299,-2.88048 -8.61849,-2.325602 -0.86494,0.156055 -1.71439,0.443459 -2.49975,0.836157 -5.20523,2.602612 -6.86617,9.678425 -4.17291,14.658055 1.7081,3.158191 4.90434,5.035176 8.44486,5.277642 2.45259,0.167958 4.92549,-0.583031 6.92094,-2.010432 0.55858,-0.399595 1.0818,-0.841118 1.56699,-1.327106 0.12458,-0.124808 0.24195,-0.25799 0.35687,-0.391753 0.0389,-0.04533 0.10687,-0.104009 0.11169,-0.167892 0.005,-0.06919 -0.0779,-0.13934 -0.11946,-0.18655 -0.12678,-0.144061 -0.27174,-0.271761 -0.40434,-0.410404 -0.41007,-0.428849 -0.81242,-0.867505 -1.23195,-1.28718 -0.15514,-0.155223 -0.32334,-0.410895 -0.52234,-0.50368 m 10.80102,-11.136918 v -3.022075 h -3.35784 v 19.94197 h 3.61901 v -9.457971 -2.910147 -0.895433 c 0,-0.14081 -0.0256,-0.311245 0.0117,-0.447715 0.13407,-0.486773 0.53711,-0.991994 0.84632,-1.380453 0.98887,-1.242098 2.42084,-2.105844 4.04806,-1.994393 0.42502,0.02913 0.85573,0.07605 1.26849,0.1877 0.23648,0.06396 0.45715,0.172572 0.69024,0.239688 l 0.53725,-1.305831 0.80589,-1.97741 c -2.26282,-0.872941 -4.84556,-0.663078 -6.73435,0.92226 -0.47437,0.398141 -0.90067,0.86865 -1.26059,1.372279 -0.16679,0.233418 -0.29309,0.507117 -0.47434,0.727536 m -81.297546,-3.022075 0.517698,1.100634 0.876584,1.82817 2.59299,5.40989 4.085412,8.525238 1.305848,2.723598 0.583099,1.212557 c 0.202152,-0.243977 0.321374,-0.626353 0.453498,-0.914077 0.209995,-0.457409 0.442863,-0.904364 0.652887,-1.3618 0.695729,-1.51518 1.436894,-3.013648 2.163024,-4.514462 1.447603,-2.991847 2.8617,-5.999832 4.309266,-8.991611 0.507562,-1.049044 1.003505,-2.103686 1.511029,-3.152656 0.299039,-0.618028 0.627026,-1.231492 0.890607,-1.865481 h -3.730922 c -0.07725,0.267933 -0.232553,0.529856 -0.348675,0.783505 -0.181914,0.397239 -0.359086,0.796657 -0.541001,1.193905 -0.582748,1.272699 -1.152136,2.551519 -1.734884,3.824231 -0.801711,1.7509 -1.586096,3.509742 -2.387807,5.260649 -0.36476,0.796605 -0.664968,1.668707 -1.106386,2.425126 l -1.598572,-3.525759 -2.910166,-6.417244 -1.176212,-2.593017 -0.305843,-0.671573 -0.135815,-0.260649 -0.309295,-0.01919 h -0.764855 -2.891486 m 93.255273,0 v 19.94197 h 3.61903 V 14.403561 h -3.61903 m -115.510454,0.186549 1.223288,1.585657 2.53422,3.264588 1.428544,1.846823 h 0.03729 l 1.172843,-1.548345 2.597878,-3.413827 0.881281,-1.156599 0.422119,-0.578297 H 37.713526 m 59.359552,8.05887 H 84.574336 c 0.01556,-0.751949 0.382694,-1.59647 0.749009,-2.238576 0.520646,-0.912629 1.238353,-1.70717 2.142512,-2.253431 2.960382,-1.788571 7.150658,-0.888767 8.884925,2.160157 0.392444,0.690011 0.722287,1.526671 0.722287,2.33185 m 33.149541,0 h -12.51736 c 0.11872,-0.637249 0.27492,-1.236149 0.54675,-1.828171 0.69746,-1.519059 2.01816,-2.727928 3.61326,-3.239515 2.15934,-0.692544 4.71006,-0.31607 6.41726,1.227965 0.57769,0.522489 1.03765,1.14883 1.38507,1.843659 0.30208,0.604182 0.54094,1.31421 0.55502,1.996062 z"
       id="path1"
       sodipodi:nodetypes="cccssccscccccccccccccccccccccccsscssscccsssssscccssssscssssssccssscccsssssssssssssscsssccccccccssssscccssccccccccsssssccssssccccccccccccccccccccccccccssscccssssc" /><path
       d="m 27.687851,1.7053759 2.232151,2.8874849 4.624113,5.9448642 3.170453,4.052305 0.02753,-0.02908 2.025038,-2.979066 4.423759,-6.5863313 1.486134,-2.2323494 0.741976,-1.0322689 -18.731277,-0.025559"
       style="fill:#14bae4;fill-opacity:1;stroke:none;stroke-width:0.128254"
       id="path1-3"
       sodipodi:nodetypes="cccccccccc" /></g></svg>
