<?xml version="1.0" encoding="UTF-8" standalone="no"?>
<!-- Created with Inkscape (http://www.inkscape.org/) -->

<svg
   width="500mm"
   height="500mm"
   viewBox="0 0 500 500"
   version="1.1"
   id="svg1"
   xml:space="preserve"
   inkscape:version="1.4.3 (0d15f75, 2025-12-25)"
   sodipodi:docname="veleri_logo_solo.svg"
   xmlns:inkscape="http://www.inkscape.org/namespaces/inkscape"
   xmlns:sodipodi="http://sodipodi.sourceforge.net/DTD/sodipodi-0.dtd"
   xmlns="http://www.w3.org/2000/svg"
   xmlns:svg="http://www.w3.org/2000/svg"><sodipodi:namedview
     id="namedview1"
     pagecolor="#ffffff"
     bordercolor="#111111"
     borderopacity="1"
     inkscape:showpageshadow="0"
     inkscape:pageopacity="0"
     inkscape:pagecheckerboard="1"
     inkscape:deskcolor="#d1d1d1"
     inkscape:document-units="mm"
     inkscape:zoom="0.25"
     inkscape:cx="1404"
     inkscape:cy="544"
     inkscape:window-width="1920"
     inkscape:window-height="1021"
     inkscape:window-x="0"
     inkscape:window-y="31"
     inkscape:window-maximized="0"
     inkscape:current-layer="layer1" /><defs
     id="defs1" /><g
     inkscape:label="Layer 1"
     inkscape:groupmode="layer"
     id="layer1"><path
       style="fill:#1b2d59;stroke:none;stroke-width:0.723009"
       d="m 3.8390885,62.421822 c 1.465787,3.288783 4.8644913,6.367682 7.1161825,9.182207 L 25.761672,90.159712 C 41.718055,110.10622 57.633086,130.0856 73.585624,150.0353 125.05313,214.39891 176.64364,278.67121 227.84591,343.2441 c 19.11232,24.10317 38.36378,48.09834 57.58065,72.11849 l 16.18369,20.2774 c 1.42506,1.78142 2.87021,3.54884 4.26223,5.35626 0.77537,1.0068 1.53983,2.30366 2.70087,2.86938 l 59.61282,-80.15289 15.6476,-21.04253 3.86457,-5.16498 1.3958,-2.29556 -1.36254,-2.10427 -4.13208,-5.16498 -15.49498,-19.32086 -59.83734,-74.6054 -99.77983,-124.34228 -27.31704,-34.050652 -7.49878,-9.373508 -3.24642,-3.710455 -4.3672,-0.115264 H 156.11055 121.8686 3.8390885 M 387.19591,194.79872 l 12.54437,16.26015 25.98728,33.47676 14.64861,18.93827 h 0.3826 l 12.02682,-15.87757 26.63973,-35.00712 9.03756,-11.86033 4.32834,-5.93016 H 387.19591"
       id="path1"
       sodipodi:nodetypes="cccssccsccccccccccccccccccccccccccc"
       inkscape:transform-center-x="-16.353342"
       inkscape:transform-center-y="9.8120015" /><path
       d="m 284.38647,62.671881 22.88957,29.609734 47.41783,60.961715 32.51156,41.55444 0.28358,-0.29823 20.76581,-30.5489 45.36336,-67.539679 15.23981,-22.891619 7.6083,-10.58547 -192.07986,-0.261991"
       style="fill:#14bae4;fill-opacity:1;stroke:none;stroke-width:1.31519"
       id="path1-3"
       sodipodi:nodetypes="cccccccccc"
       inkscape:transform-center-x="-148.46454"
       inkscape:transform-center-y="-114.5969" /></g></svg>
