<?xml version="1.0" encoding="UTF-8" standalone="no"?>
<!-- Created with Inkscape (http://www.inkscape.org/) -->

<svg
   width="30mm"
   height="30mm"
   viewBox="0 0 30 30"
   version="1.1"
   id="svg1"
   xml:space="preserve"
   inkscape:version="1.4.3 (0d15f75, 2025-12-25)"
   sodipodi:docname="veleri_logo_solo.svg"
   inkscape:export-filename="veleri_logo_solo.svg"
   inkscape:export-xdpi="96"
   inkscape:export-ydpi="96"
   xmlns:inkscape="http://www.inkscape.org/namespaces/inkscape"
   xmlns:sodipodi="http://sodipodi.sourceforge.net/DTD/sodipodi-0.dtd"
   xmlns="http://www.w3.org/2000/svg"
   xmlns:svg="http://www.w3.org/2000/svg"><sodipodi:namedview
     id="namedview1"
     pagecolor="#ffffff"
     bordercolor="#111111"
     borderopacity="1"
     inkscape:showpageshadow="0"
     inkscape:pageopacity="0"
     inkscape:pagecheckerboard="1"
     inkscape:deskcolor="#d1d1d1"
     inkscape:document-units="mm"
     inkscape:zoom="4"
     inkscape:cx="51.75"
     inkscape:cy="67.5"
     inkscape:window-width="1920"
     inkscape:window-height="1021"
     inkscape:window-x="0"
     inkscape:window-y="31"
     inkscape:window-maximized="0"
     inkscape:current-layer="layer1"
     showguides="true" /><defs
     id="defs1" /><g
     inkscape:label="Layer 1"
     inkscape:groupmode="layer"
     id="layer1"><path
       style="fill:#1b2d59;stroke:none;stroke-width:0.0440904"
       d="m 0.04261102,4.1202957 c 0.08938727,0.2005551 0.2966465,0.3883112 0.43395611,0.5599462 L 1.3794881,5.8117972 c 0.973046,1.2163697 1.9435691,2.4347455 2.91638,3.6513102 3.1385729,3.9249976 6.2846449,7.8444246 9.4070419,11.7821856 1.1655,1.469851 2.339485,2.933113 3.511361,4.397902 l 0.986907,1.236548 c 0.0869,0.108631 0.175031,0.216413 0.259919,0.326634 0.04728,0.0614 0.09389,0.14048 0.164703,0.174979 l 3.635286,-4.887853 0.954216,-1.283207 0.235667,-0.314968 0.08511,-0.139989 -0.08309,-0.12832 L 23.201016,20.31205 22.256108,19.133833 18.607131,14.584274 12.522394,7.0016806 10.856557,4.9252166 10.399271,4.353605 10.201298,4.1273352 9.9349801,4.120304 H 9.3283705 7.2402434 0.04261102 m 23.37771998,8.072546 0.764975,0.99157 1.584747,2.041467 0.893296,1.154887 h 0.02333 l 0.733415,-0.968241 1.624532,-2.13479 0.551126,-0.723262 0.263949,-0.361631 h -6.439378"
       id="path1"
       sodipodi:nodetypes="cccssccsccccccccccccccccccccccccccc"
       inkscape:transform-center-x="-0.99725201"
       inkscape:transform-center-y="0.59835176" /><path
       d="m 17.141776,4.0033807 1.416801,1.8327609 2.935034,3.7733619 2.012375,2.5721055 0.01757,-0.01846 L 24.8089,10.272257 27.616766,6.0917381 28.560068,4.6748092 29.031,4.0195986 17.141787,4.0033816"
       style="fill:#14bae4;fill-opacity:1;stroke:none;stroke-width:0.0814067"
       id="path1-3"
       sodipodi:nodetypes="cccccccccc"
       inkscape:transform-center-x="-9.1895497"
       inkscape:transform-center-y="-7.0932321" /></g></svg>
